<?xml version="1.0" standalone="no"?>
<!DOCTYPE svg PUBLIC "-//W3C//DTD SVG 20010904//EN"
 "http://www.w3.org/TR/2001/REC-SVG-20010904/DTD/svg10.dtd">
<svg version="1.0" xmlns="http://www.w3.org/2000/svg"
 width="512.000000pt" height="512.000000pt" viewBox="0 0 512.000000 512.000000"
 preserveAspectRatio="xMidYMid meet">
<metadata>
Created by potrace 1.14, written by Peter Selinger 2001-2017
</metadata>
<g transform="translate(0.000000,512.000000) scale(0.100000,-0.100000)"
fill="#000000" stroke="none">
<path d="M2990 4799 c-142 -16 -354 -64 -348 -78 2 -5 33 -33 70 -64 81 -69
173 -182 224 -275 l38 -69 115 -7 c63 -3 117 -8 119 -11 7 -6 -45 -282 -95
-500 -54 -240 -57 -321 -23 -630 17 -147 23 -258 22 -418 l0 -219 19 32 c52
84 125 246 159 350 50 153 76 283 100 503 22 199 38 302 76 477 29 136 84 342
94 353 12 13 354 -83 398 -112 11 -6 4 -41 -37 -172 -169 -553 -232 -825 -245
-1052 -11 -185 -45 -336 -122 -549 -42 -113 -152 -343 -212 -441 -23 -37 -42
-72 -42 -77 0 -13 181 -473 190 -483 10 -11 116 122 186 235 200 323 325 727
380 1228 40 370 108 640 220 866 42 85 125 204 142 204 12 0 212 -153 269
-207 l53 -48 -51 -80 c-137 -219 -276 -542 -354 -825 -19 -69 -53 -215 -75
-325 -68 -340 -132 -554 -228 -770 -106 -240 -269 -465 -413 -571 l-46 -34 35
-175 35 -174 29 17 c129 75 390 313 515 467 143 177 262 384 336 585 19 52 61
199 92 325 85 347 170 594 275 808 59 118 144 248 194 296 l36 35 0 527 0 527
-82 53 c-380 244 -904 419 -1423 474 -151 16 -499 18 -625 4z"/>
<path d="M2314 4709 c-3 -6 5 -32 19 -57 14 -26 45 -112 68 -192 57 -196 101
-299 155 -359 43 -47 96 -81 128 -81 34 0 56 37 56 93 0 147 -96 320 -283 514
-88 91 -124 112 -143 82z"/>
<path d="M2026 4544 c-54 -7 -121 -21 -147 -29 -69 -23 -158 -84 -212 -146
-101 -113 -184 -340 -207 -558 l-9 -95 42 -45 c62 -66 104 -132 137 -210 70
-170 223 -341 306 -341 68 0 69 52 3 226 -26 69 -45 138 -50 188 -12 104 -42
158 -146 266 -45 46 -79 88 -75 92 12 12 206 128 214 128 10 0 104 -187 134
-267 13 -35 42 -136 65 -225 41 -164 67 -239 88 -252 21 -13 51 5 70 42 27 53
39 123 51 281 9 116 8 151 -4 204 -17 72 -61 189 -106 278 -22 43 -27 61 -18
64 7 2 40 14 73 25 33 12 65 23 72 25 8 3 0 32 -25 92 -19 48 -48 129 -63 178
-26 90 -27 90 -60 92 -19 0 -79 -5 -133 -13z"/>
<path d="M1227 3358 c-65 -120 -117 -226 -117 -238 0 -5 20 -10 44 -10 61 0
188 -25 226 -45 17 -9 52 -32 77 -51 152 -116 398 -159 368 -64 -4 12 -58 59
-120 106 -74 54 -129 103 -155 139 -22 30 -59 73 -83 96 -41 40 -181 149 -190
149 -3 0 -25 -37 -50 -82z"/>
<path d="M2543 3318 c-31 -41 -23 -75 59 -252 89 -190 109 -255 115 -366 5
-87 2 -103 -25 -185 -48 -142 -56 -204 -56 -400 1 -305 43 -474 205 -815 29
-60 56 -110 60 -110 5 0 58 35 119 78 70 49 110 84 110 95 0 35 -72 304 -125
467 -105 320 -111 367 -79 592 10 70 14 143 11 193 -14 200 -152 516 -287 657
-55 57 -87 71 -107 46z"/>
<path d="M2155 3074 c-127 -66 -138 -241 -21 -314 113 -69 261 1 274 130 2 27
2 60 -2 74 -9 36 -65 96 -103 112 -43 19 -111 17 -148 -2z"/>
<path d="M949 2808 c-15 -12 -149 -318 -149 -339 0 -5 74 -9 164 -9 340 0 594
-49 739 -142 94 -60 438 -532 549 -752 57 -114 119 -293 145 -418 9 -49 22
-88 28 -88 23 0 238 40 243 45 8 8 -14 88 -65 245 -162 488 -368 859 -607
1088 -179 171 -435 302 -701 357 -111 23 -325 31 -346 13z"/>
<path d="M759 2213 l-86 -4 -54 -116 c-30 -63 -55 -119 -57 -123 -1 -4 68 -10
155 -13 241 -9 489 -68 690 -164 222 -104 427 -340 599 -686 40 -83 74 -156
74 -164 0 -7 3 -13 7 -13 13 0 163 102 163 111 0 13 -161 276 -279 453 -179
272 -339 476 -441 561 -136 115 -416 172 -771 158z"/>
<path d="M462 1788 c-21 -26 -173 -328 -252 -502 -45 -99 -91 -216 -102 -260
-47 -187 8 -455 138 -662 146 -236 399 -357 713 -341 301 14 454 110 704 442
66 88 151 197 189 242 76 91 77 97 18 147 -39 32 -147 65 -366 110 -178 37
-278 67 -354 106 -66 34 -163 137 -299 321 -191 259 -263 349 -305 380 -43 31
-68 36 -84 17z"/>
<path d="M5025 1573 c-248 -378 -469 -671 -559 -742 -140 -111 -391 -245 -651
-346 -66 -26 -121 -48 -123 -50 -6 -5 31 -360 38 -368 8 -9 455 141 655 220
280 110 495 249 668 432 l67 71 0 460 c0 253 -1 460 -2 460 -2 0 -43 -62 -93
-137z"/>
</g>
</svg>
